<svg xmlns="http://www.w3.org/2000/svg" xmlns:xlink="http://www.w3.org/1999/xlink" version="1.1" x="0px" y="0px" viewBox="0 0 100 100" enable-background="new 0 0 100 100" xml:space="preserve"><g><path fill-rule="evenodd" clip-rule="evenodd" d="M27.629,77.803c0-4.808,3.903-8.711,8.711-8.711c4.796,0,8.699,3.903,8.699,8.711   c0,4.797-3.903,8.698-8.699,8.698C31.532,86.501,27.629,82.6,27.629,77.803z"></path><path fill-rule="evenodd" clip-rule="evenodd" d="M83.373,58.725l-7.477,12.952l-16.203-9.354c-2.117,3.223-5.76,5.358-9.894,5.358   c-5.466,0-10.063-3.721-11.427-8.752L12.3,65.918L20.094,95l68.111-18.244L83.373,58.725z M36.34,89.64   c-6.536,0-11.85-5.313-11.85-11.837c0-6.536,5.313-11.838,11.85-11.838c6.524,0,11.838,5.302,11.838,11.838   C48.178,84.326,42.864,89.64,36.34,89.64z"></path><path fill-rule="evenodd" clip-rule="evenodd" d="M41.089,55.843c0-4.808,3.902-8.711,8.71-8.711c4.796,0,8.7,3.903,8.7,8.711   c0,4.797-3.904,8.698-8.7,8.698C44.992,64.541,41.089,60.64,41.089,55.843z"></path><path fill-rule="evenodd" clip-rule="evenodd" d="M31.026,50.294c0,5.679-4.608,10.275-10.274,10.275   c-5.678,0-10.274-4.597-10.274-10.275c0-5.666,4.596-10.274,10.274-10.274C26.418,40.02,31.026,44.628,31.026,50.294z"></path><g><path fill-rule="evenodd" clip-rule="evenodd" d="M51.281,36.246l-1.846,3.198c0.635,0.199,1.164,0.234,1.6,0.094    c0.434-0.141,0.75-0.388,0.951-0.752c0.188-0.307,0.236-0.659,0.176-1.047C52.092,37.352,51.799,36.847,51.281,36.246z"></path><path fill-rule="evenodd" clip-rule="evenodd" d="M28.464,5L13.405,31.074l28.164,16.262c2.133-2.065,5.034-3.343,8.231-3.343    c6.524,0,11.839,5.313,11.839,11.85c0,0.99-0.137,1.948-0.369,2.869l13.193,7.617l15.059-26.086L28.464,5z M59.463,33.483    l-4.02-1.551c0.082-0.564,0.094-0.987,0.045-1.258c-0.045-0.271-0.188-0.6-0.422-0.976l-1.668,2.879    c1.715,1.705,2.738,3.046,3.066,4.033c0.436,1.316,0.295,2.598-0.422,3.832c-0.412,0.717-0.965,1.293-1.635,1.704    c-0.67,0.423-1.363,0.682-2.104,0.8c-0.73,0.117-1.435,0.105-2.105-0.047c-0.67-0.142-1.422-0.436-2.257-0.87l-1.093,1.893    l-1.446-0.835l1.093-1.893c-0.917-0.646-1.623-1.258-2.092-1.834c-0.482-0.575-0.823-1.199-1.023-1.857    c-0.211-0.657-0.294-1.281-0.271-1.893c0.036-0.599,0.176-1.27,0.447-1.998l4.268,1.846c-0.259,0.729-0.365,1.293-0.33,1.705    c0.036,0.41,0.223,0.857,0.553,1.352L50.082,35c-1.128-1.151-1.893-2.021-2.292-2.609c-0.399-0.6-0.635-1.316-0.706-2.151    c-0.059-0.834,0.153-1.692,0.659-2.551c0.682-1.188,1.658-1.928,2.938-2.245c1.293-0.317,2.776-0.047,4.456,0.8l0.553-0.977    l1.445,0.835l-0.564,0.976c1.436,0.952,2.363,1.963,2.799,3.021C59.803,31.156,59.84,32.284,59.463,33.483z"></path><path fill-rule="evenodd" clip-rule="evenodd" d="M52.467,28.829c-0.281,0.105-0.504,0.306-0.656,0.576    c-0.176,0.294-0.236,0.599-0.188,0.905c0.033,0.317,0.223,0.669,0.551,1.045l1.469-2.538C53.15,28.711,52.75,28.711,52.467,28.829    z"></path></g></g></svg>